{"title":"Captain America The Winter Soldier 2014 BDRip 480p x264 Dual Aud","uid":10773807,"size":549241694,"categoryP":"video","categoryS":"movies","magnet":"?xt=urn:btih:3dceb1e8af67d37832a0e867cb93b22555c157b9&amp;dn=Captain+America+The+Winter+Soldier+2014+BDRip+480p+x264+Dual+Aud&amp;tr=udp%3A%2F%2Ftracker.openbittorrent.com%3A80&amp;tr=udp%3A%2F%2Fopen.demonii.com%3A1337&amp;tr=udp%3A%2F%2Ftracker.coppersurfer.tk%3A6969&amp;tr=udp%3A%2F%2Fexodus.desync.com%3A6969","seeders":2,"leechers":0,"uploader":"Dj_YsB","files":10,"time":1408063010,"description":"Captain America The Winter Soldier 2014 BDRip 480p x264 Dual Audio [Hindi-Eng] YsB TeaM FL\n\n &lt;a href=&quot;\nhttp://i.imgur.com/LJRaG6N.jpg&quot; rel=&quot;nofollow&quot; target=&quot;_NEW&quot;&gt;\nhttp://i.imgur.com/LJRaG6N.jpg&lt;/a&gt;\n\nInfo:\nGeneral\nComplete name                            : Captain America The Winter Soldier 2014 BDRip 480p x264 Dual Audio [Hindi-Eng] YsB TeaM FL.mkv\nFormat                                   : Matroska\nFormat version                           : Version 4 / Version 2\nFile size                                : 515 MiB\nDuration                                 : 2h 15mn\nOverall bit rate                         : 530 Kbps\nMovie name                               : Captain America The Winter Soldier 2014 BDRip 480p x264 Dual Audio [Hindi-Eng] YsB TeaM FL\nVideo\nID                                       : 1\nFormat                                   : AVC\nDuration                                 : 2h 15mn\nBit rate                                 : 400 Kbps\nWidth                                    : 848 pixels\nHeight                                   : 352 pixels\nFrame rate                               : 23.976 fps\nStream size                              : 381 MiB (74%)\nTitle                                    : YsB TeaM FL\n\nAudio #1\nID                                       : 2\nFormat                                   : AC-3\nBit rate                                 : 64.0 Kbps\nChannel(s)                               : 2 channels\nChannel positions                        : Front: L R\nSampling rate                            : 48.0 KHz\nStream size                              : 62.2 MiB (12%)\nTitle                                    : YsB TeaM FL\nLanguage                                 : Hindi\nAudio #2\nID                                       : 3\nFormat                                   : AC-3\nBit rate                                 : 64.0 Kbps\nChannel(s)                               : 2 channels\nChannel positions                        : Front: L R\nSampling rate                            : 48.0 KHz\nStream size                              : 62.2 MiB (12%)\nTitle                                    : YsB TeaM FL\nLanguage                                 : English\n\nText\nID                                       : 4\nFormat                                   : UTF-8\nCodec ID                                 : S_TEXT/UTF8\nCodec ID/Info                            : UTF-8 Plain Text\nTitle                                    : YsB TeaM FL\nLanguage                                 : English\nDefault                                  : No\nForced                                   : No\n\nMenu\n00:00:00.000                             : en:00:00:00.000\n00:03:28.667                             : en:00:03:28.667\n00:13:31.728                             : en:00:13:31.728\n00:17:57.868                             : en:00:17:57.868\n00:22:25.302                             : en:00:22:25.302\n00:33:20.415                             : en:00:33:20.415\n00:41:27.276                             : en:00:41:27.276\n00:51:37.303                             : en:00:51:37.303\n00:58:23.959                             : en:00:58:23.959\n01:07:40.348                             : en:01:07:40.348\n01:16:22.203                             : en:01:16:22.203\n01:24:43.078                             : en:01:24:43.078\n01:32:17.699                             : en:01:32:17.699\n01:37:06.612                             : en:01:37:06.612\n01:49:13.088                             : en:01:49:13.088\n01:55:03.730                             : en:01:55:03.730\n02:01:11.055                             : en:02:01:11.055\n02:06:22.241                             : en:02:06:22.241\n\nScreenShot: &lt;a href=&quot;\nhttp://i.imgur.com/pvVJxo1.png&quot; rel=&quot;nofollow&quot; target=&quot;_NEW&quot;&gt;\nhttp://i.imgur.com/pvVJxo1.png&lt;/a&gt; &lt;a href=&quot;\nhttp://i.imgur.com/czCavBQ.png&quot; rel=&quot;nofollow&quot; target=&quot;_NEW&quot;&gt;\nhttp://i.imgur.com/czCavBQ.png&lt;/a&gt; &lt;a href=&quot;\nhttp://i.imgur.com/khRwJDA.png&quot; rel=&quot;nofollow&quot; target=&quot;_NEW&quot;&gt;\nhttp://i.imgur.com/khRwJDA.png&lt;/a&gt;\n\nThanks\nGPsoft.\nTeaM FL - Dj YsB, Swaraj, Hemkumar, Sajan...","torrent":{"xt":"urn:btih:3dceb1e8af67d37832a0e867cb93b22555c157b9","amp;dn":"Captain+America+The+Winter+Soldier+2014+BDRip+480p+x264+Dual+Aud","amp;tr":["udp%3A%2F%2Ftracker.openbittorrent.com%3A80","udp%3A%2F%2Fopen.demonii.com%3A1337","udp%3A%2F%2Ftracker.coppersurfer.tk%3A6969","udp%3A%2F%2Fexodus.desync.com%3A6969"],"infoHash":"3dceb1e8af67d37832a0e867cb93b22555c157b9","infoHashBuffer":{"type":"Buffer","data":[61,206,177,232,175,103,211,120,50,160,232,103,203,147,178,37,85,193,87,185]},"announce":[],"urlList":[]}}